<?xml version="1.0" encoding="utf-8"?>
<!-- Generator: Adobe Illustrator 25.2.1, SVG Export Plug-In . SVG Version: 6.00 Build 0)  -->
<svg version="1.1" id="圖層_1" xmlns="http://www.w3.org/2000/svg" xmlns:xlink="http://www.w3.org/1999/xlink" x="0px" y="0px"
	 viewBox="0 0 428.7 452" enable-background="new 0 0 428.7 452" xml:space="preserve">
<path fill="#FFFFFF" d="M91.1,297.9v-5.2h23.6c2.6,0,3.8-1.2,3.8-3.6v-4.9c0-2.3-1.2-3.4-3.8-3.4H99c-5.6,0-8.3-2.6-8.3-7.9l0-3.6
	c0-5.2,2.8-7.8,8.3-7.8h24.7v5.2H99.9c-2.4,0-3.6,1.1-3.6,3.3v2.4c0,2.3,1.2,3.4,3.5,3.4h15.9c5.6,0,8.4,2.4,8.4,7.3v7.1
	c0,5.2-2.8,7.8-8.4,7.9H91.1z M135.7,297.9l14.7-28.3l8.3,15.5h-12.3l-2.6,5h17.4l4,7.8h6.2l-18.9-36.5h-4.2l-19,36.4H135.7z
	 M183.4,261.3h-5.3v36.6h5.7v-27.7l22.1,27.7h5.6v-36.6H206v28L183.4,261.3z M229.9,297.9h16.7c5.4-0.1,8.2-2.7,8.3-7.8l0.1-21.1
	c-0.1-5-2.9-7.6-8.4-7.7h-25v36.6h5.5v-31.4h18.4c2.6,0,3.9,1.2,3.9,3.8v18.3c-0.1,2.9-1.4,4.2-4.1,4.1h-15.4V297.9z M280.3,280.8
	l15.2-19.5h-6.9l-11.1,14.5l-11.2-14.5h-6.7l15.1,19.5v17.1h5.5V280.8z M322.8,280.8l15.2-19.5h-6.9l-11.1,14.5l-11.2-14.5h-6.7
	l15.1,19.5v17.1h5.5V280.8z M178.1,330.9v2.4c1.2-0.2,2.3-0.2,3.3-0.2h23.8c1,0,2.1,0.1,3.4,0.2v-2.4c-1.9,0.1-3,0.2-3.3,0.2h-23.9
	C180.8,331.2,179.7,331.1,178.1,330.9L178.1,330.9z M231.3,327v-0.5c0-0.9,0.2-1.5,0.7-1.9c0.2-0.2,0.3-0.3,0.3-0.3
	c0,0-0.2-0.1-0.5-0.2l-2.5-0.5l0.1,0.9l0.1,1.3c0,0.3,0,0.6,0,1.1h-4.8v-0.1c0-0.8,0.2-1.5,0.7-1.9c0.2-0.2,0.3-0.3,0.3-0.3
	c0,0-0.2-0.1-0.5-0.2l-2.5-0.5c0.1,0.9,0.1,1.6,0.2,1.9c0,0.4,0,0.7,0.1,1h-2.2c-0.9,0-1.9-0.1-3.2-0.2v2.1c0.9-0.1,1.9-0.2,3.1-0.2
	h2.3v5.2c0,0.5,0,0.9,0,1.2c0,0.3-0.1,0.9-0.2,1.7c0.3,0,0.7,0,1.3-0.1c0.6-0.1,1.2-0.1,1.8-0.1h6.3v2.4h-11.8c-1,0-2.1-0.1-3.2-0.2
	v2.1c0.9-0.1,1.9-0.2,3.1-0.2h9.5c-1.3,1.1-3.2,2.3-5.6,3.5c-2.4,1.2-4.7,1.8-7,1.8l0.6,0.6c0.1,0.1,0.4,0.7,1,1.7
	c3.2-1.1,5.5-2,7.1-2.8c1.5-0.8,3.6-2.1,6.3-4.1v4l-0.1,1.1l0,0.9c0,0.2-0.1,0.5-0.1,0.8h2.3l-0.1-0.8l0-0.8l-0.1-1.2V341
	c1.7,1.5,3,2.7,4,3.4c1,0.7,2.1,1.3,3.3,1.9c1.2,0.5,3.2,1.2,5.9,2.1c0.5-0.9,0.9-1.5,1-1.6c0.1-0.2,0.4-0.4,0.7-0.7
	c-1.4-0.1-2.7-0.2-4-0.5c-1.2-0.3-2.7-0.9-4.3-1.7c-1.6-0.8-3-1.9-4.2-3.1l9,0.2c1.3,0,2.4,0.1,3,0.2v-2.1c-1.1,0.1-2.1,0.2-3,0.2
	h-11.3v-2.4h8.1c0.5,0,1.5,0.1,3,0.2v-2c-1.6,0.1-2.6,0.2-3,0.2h-17.3v-6.4h4.8v1.9l-0.1,1.2l0,0.8c0,0.2-0.1,0.4-0.1,0.8
	c0.9-0.1,1.8-0.2,2.8-0.2h5c1.1,0,2.1,0.1,3,0.2l-0.1-0.9c0,0,0-0.3-0.1-0.9c0-0.6,0-0.9,0-1v-1.8h4.6c0.5,0,1.5,0.1,3,0.2v-2.1
	c-1.1,0.1-2.1,0.2-3,0.2h-4.6v-0.2c0-0.4,0-0.8,0.1-1.1c0.1-0.3,0.3-0.6,0.5-0.8c0.2-0.2,0.3-0.3,0.3-0.3c0,0-0.2-0.1-0.5-0.2
	l-2.6-0.5c0.1,1,0.1,1.6,0.2,1.9c0,0.3,0,0.7,0.1,1.1H231.3L231.3,327z M237.9,331.4h-6.6v-2.7h6.6V331.4L237.9,331.4z M227.2,317
	c0,0,0,0.2,0,0.7l0.1,1.2v0.9h-7.7c-1.1,0-2-0.1-2.6-0.2v2.1c0.6-0.1,1.4-0.2,2.6-0.2h7.7v0.4l-0.1,0.8l0,0.5c0,0.1-0.1,0.3-0.1,0.5
	h2.3l-0.1-0.5c0,0,0-0.2,0-0.5l0-0.7v-0.4h7v0.6c0,0,0,0.1-0.1,0.4l0,0.7c0,0.1-0.1,0.3-0.1,0.5h2.3l-0.1-0.4l0-0.6l-0.1-0.7v-0.5
	h7.2c1.3,0,2.2,0.1,2.7,0.2v-2.1c-0.3,0-0.7,0.1-1.3,0.1c-0.6,0.1-1,0.1-1.3,0.1h-7.2v-1.3c0-0.2,0.1-0.5,0.2-0.7
	c0.2-0.3,0.3-0.4,0.4-0.5c0.2-0.2,0.3-0.3,0.3-0.4c0-0.1-0.2-0.1-0.4-0.2l-2.7-0.4l0.1,0.5l0.1,0.9c0,0.4,0.1,0.7,0.1,0.7v1.5h-7
	v-1.1c0-0.2,0.1-0.5,0.2-0.8c0.1-0.3,0.3-0.5,0.5-0.6c0.1-0.1,0.2-0.2,0.2-0.3c0-0.1-0.1-0.1-0.4-0.2l-2.6-0.3L227.2,317z
	 M214.8,245.8c-2.4-4.3-1.3-17.2-1.5-25.2c-17.7-1.3-32.6-3.9-45.3-16.6c-10.7-10.6-15.1-30.2-8.8-33.6c2.6-1.4,9.4,1.5,13.1,2.2
	c-2.6-6.5-5.6-12-4.4-20.7c0.9-6.4,4.7-14.8,9.8-15.8c2.4-0.4,3.4,5.1,9.1,7c1.1-1.9,2.4-9.7,4-12.8c3.9-8,16.4-26.8,24.6-26.7
	c8.3,0.1,30.8,19.4,30.8,38c3.9-2.7,6-6.6,7-6.8c4.9,0.3,8.1,9,8.8,15.1c1.2,10.1-0.6,13.2-2.8,21.4c4-1.3,7.9-3.3,12.5-2.8
	c3.2,5.9,1.9,16.5,0.1,23.7c-1.8,7.4-6.9,12.5-11.1,16c-16.1,13.8-31.7,10.6-40.3,12.4c-0.2,4,0.1,16.2-0.7,21.6
	C219,247.1,215.7,248.5,214.8,245.8L214.8,245.8z M219,200.6c5.7-3.2,12.4-7.7,17.5-9.2c1.2-0.9,4.6-2.1,4.7-4.2
	c-6.1-2-18.2,7.5-22.6,9.6l-0.8-18.7c7.1-7.6,20.4-13.9,21.6-15.5c-1.7-6-12.9,3.8-16.4,6.6c-1.6,1.3-3.8,3-5.5,3.9
	c-0.2-6.4-0.3-12.2-0.1-18.6c0.1-2.5,2.2-24.1-2.2-21.5c-2.6,3.4-1.4,34.4-1.4,40.6l-9.3-6.7c-2.7-1.9-7-5.3-10.4-3.6
	c0,3.4,1.6,2.5,4.7,4.5l15.3,10.5l0.7,18.4c-4.5-1.6-17.9-11.3-25.1-9.9c0.3,2.3,3.9,3.6,3.9,3.6c3.6,0.9,11.3,4.7,14,6.4
	c2,1.2,7,3.3,7.3,6.3c0.6,24.3-0.6,40.5,1.5,41.8c1.5,1,2.1-22.5,2.2-25.1L219,200.6z"/>
</svg>
